<svg xmlns="http://www.w3.org/2000/svg" width="1043" height="1198" viewBox="0 0 1043 1198" version="1.1">
	<path d="M 27 598.464 L 27 1196.928 17.250 1197.254 L 7.500 1197.581 17.750 1197.791 L 28 1198 28 599 C 28 269.550, 27.775 0, 27.500 0 C 27.225 0, 27 269.309, 27 598.464 M 536.500 342.626 C 505.327 347.191, 478.854 356.967, 454.943 372.746 C 390.122 415.520, 358.429 492.197, 373.621 569.500 C 376.057 581.895, 381.626 598.341, 387.784 611.322 L 393.392 623.145 374.069 671.112 C 363.441 697.494, 354.943 719.277, 355.184 719.518 C 355.426 719.759, 376.682 712.238, 402.420 702.805 C 444.966 687.212, 449.411 685.780, 451.358 687.042 C 476.276 703.191, 499.205 712.564, 526.189 717.633 C 539.187 720.075, 570.908 720.575, 585.301 718.565 C 639.521 710.993, 687.458 680.824, 717.287 635.500 C 744.842 593.631, 754.588 543.424, 744.903 493.236 C 737.104 452.820, 713.492 412.947, 681.500 386.170 C 657.171 365.806, 628.967 352.103, 597.500 345.359 C 586.953 343.098, 582.714 342.750, 562.500 342.487 C 549.850 342.322, 538.150 342.385, 536.500 342.626 M 527 425 C 525.167 426.833, 525 428.333, 525 443 L 525 459 517.157 459 C 507.090 459, 501.814 461.533, 497.554 468.412 C 495.007 472.524, 494.550 474.376, 494.182 482.084 L 493.755 491 478.443 491 C 470.021 491, 461.988 491.434, 460.593 491.965 C 457.227 493.244, 456.164 497.419, 458.536 500.040 C 460.164 501.839, 461.695 502, 477.155 502 L 494 502 494 512 L 494 522 477.057 522 C 460.682 522, 460.061 522.075, 458.557 524.223 C 456.499 527.160, 456.593 528.593, 459 531 C 460.838 532.838, 462.333 533, 477.500 533 L 494 533 494 543 L 494 553 477.155 553 C 461.496 553, 460.181 553.143, 458.473 555.030 C 457.017 556.638, 456.834 557.626, 457.591 559.780 L 458.546 562.500 476.273 562.773 L 494 563.046 494.006 568.773 C 494.013 576.527, 495.513 581.375, 499.203 585.578 C 503.686 590.685, 507.323 592.179, 516.687 592.763 L 525 593.282 525 610.207 C 525 619.961, 525.439 627.951, 526.035 629.066 C 526.750 630.401, 528.133 631, 530.500 631 C 532.867 631, 534.250 630.401, 534.965 629.066 C 535.562 627.949, 536 619.917, 536 610.066 L 536 593 546 593 L 556 593 556 610.800 C 556 623.311, 556.357 628.957, 557.200 629.800 C 558.976 631.576, 564.667 631.311, 565.393 629.418 C 565.727 628.548, 566 619.998, 566 610.418 L 566 593 576.500 593 L 587 593 587 610.800 C 587 629.861, 587.282 631, 592 631 C 596.714 631, 597 629.853, 597 610.925 L 597 593.251 605.274 592.817 C 615.104 592.301, 620.502 589.769, 624.707 583.702 C 626.963 580.445, 627.533 578.338, 627.970 571.628 L 628.500 563.500 645.428 563.225 C 655.840 563.056, 662.864 562.528, 663.678 561.853 C 665.328 560.483, 665.403 555.803, 663.800 554.200 C 662.959 553.359, 657.422 553, 645.300 553 L 628 553 628 543 L 628 533 644.566 533 C 654.073 533, 661.956 532.559, 663.066 531.965 C 664.401 531.250, 665 529.867, 665 527.500 C 665 525.133, 664.401 523.750, 663.066 523.035 C 661.956 522.441, 654.073 522, 644.566 522 L 628 522 628 512 L 628 502 645.300 502 C 664.268 502, 665 501.787, 665 496.275 C 665 491.570, 662.726 491, 643.935 491 L 628 491 628 482.968 C 628 466.296, 620.982 459.068, 604.750 459.022 L 597 459 597 442.655 C 597 427.499, 596.852 426.176, 594.970 424.473 C 593.362 423.018, 592.373 422.834, 590.220 423.590 L 587.500 424.545 587 441.522 L 586.500 458.500 576.500 458.500 L 566.500 458.500 566 441.522 L 565.500 424.545 562.780 423.590 C 560.627 422.834, 559.638 423.018, 558.030 424.473 C 556.148 426.176, 556 427.499, 556 442.655 L 556 459 546 459 L 536 459 536 443 C 536 428.333, 535.833 426.833, 534 425 C 532.900 423.900, 531.325 423, 530.500 423 C 529.675 423, 528.100 423.900, 527 425 M 526.308 488.010 C 525.103 488.495, 523.303 490.134, 522.308 491.652 C 520.660 494.168, 520.500 497.219, 520.500 526.187 L 520.500 557.962 523.768 561.231 L 527.036 564.500 559.428 564.801 C 595.410 565.135, 597.477 564.845, 600.474 559.051 C 601.869 556.352, 602.042 551.794, 601.790 524.389 L 601.500 492.834 598.234 489.917 L 594.968 487 561.734 487.063 C 543.455 487.098, 527.514 487.524, 526.308 488.010 M 1.762 1197.707 C 3.006 1197.946, 4.806 1197.937, 5.762 1197.687 C 6.718 1197.437, 5.700 1197.241, 3.500 1197.252 C 1.300 1197.263, 0.518 1197.468, 1.762 1197.707 " stroke="none" fill="black" fill-rule="evenodd"/>
</svg>